<?xml version="1.0" encoding="utf-8"?>
<svg version="1.1" id="Layer_1" xmlns="http://www.w3.org/2000/svg" xmlns:xlink="http://www.w3.org/1999/xlink" x="0px" y="0px"
	 width="276px" height="274px" viewBox="0 0 276.6 274.3" style="enable-background:new 0 0 276.6 274.3;" xml:space="preserve">
<style type="text/css">
	.st0{fill:#fc8997;}
</style>
<g>
	<g>
		<path class="st0" d="M45.7,142.1c-2.1-29.3,10.9-51.6,15.1-57.6c1.4-2,1.4-0.4,1.3,0.3c-2.7,12.6-8.4,24.4-10.4,37.2
			c-1.2,8-0.8,16.4,1.2,23.2c9.5,32,20.7,3.6,25.5-8.5c10.1-25.4,7.6-28.3,2.6-34.1C65.1,84,76.6,68.4,82,62.3
			c4.4-4.9,2.1-0.5,1.8,0.4c-3.5,8.2-3.9,12.9-3.1,15.7c2.3,7.8,9.8,10.7,14.6,16.1c9.3,10.5,3.9,27.2,0,39.3
			c-4.4,13.7-15.7,45.4-26.9,44.6C55.8,177.6,46.7,156.7,45.7,142.1z"/>
		<path class="st0" d="M159.8,125.3c15.5-0.7,41.8-4.8,43.3-25.3c1.7-23.9-23.9-45.5-33.5-51.4c-5.6-3.5-3.3-0.3-2.3,0.6
			c12.4,10.5,16.3,20.7,18.4,24.9c2.8,5.6,5.6,13.8,3.3,21.3c-3.2,10.4-29.9,12.4-43.3,9.9c-13.6-2.6-45.4-32.4-44.9-51.5
			c0-0.9,0.1-1.6,0.2-2.2c0.1-0.8-0.2-0.9-0.6-0.8c-0.4,0.2-21.1,10.6,15.6,52.8C129.7,118.9,139.7,126.1,159.8,125.3z"/>
		<path class="st0" d="M130.6,47.1c2.2,1.3,3.9,2.4,5.9,4.1c4.3,3.5,8.6,8.7,12.3,13.3c0.1,0.1,0.2,0.2,0.2,0.2
			c0.6,0.5,1.9,0.4,2-0.6c0.6-4.4-4.1-21.3-19.1-21.2c-6.3,0.1-5.6,1.2-5.4,1.4C126.7,44.4,127.3,45,130.6,47.1z"/>
		<path class="st0" d="M221.7,174.9c-1.2,0.8-3.4,3.1-4.9,4.6c-0.9,0.9-9.3,9-22.9,15c-0.9,0.4-1.8,0.7-2.6,1
			c-5.2,1.9-5.4,1.9-33.1,2.5c-5.1,0.1-17.2,0.4-27.8,9.4c-5.9,5-7.4,16.3-17.5,16.8c-0.4,0-0.6,0.6-0.2,0.8
			c9.1,4.6,22.7-8.6,29.8-11.6c4.5-1.9,9.2-2,15.4-1.9c8,0.1,20.2,0.2,31.1-5.3c5.6-2.9,20.8-10.2,32.6-28.8
			C222.3,176.1,222.9,174.1,221.7,174.9z"/>
		<path class="st0" d="M147.5,219.6c-8.9,1.8-10.8,6-11.2,7.7c-0.1,0.3,0.1,0.6,0.4,0.6c15.4,2.2,36-5.1,37.9-7.6
			c0.2-0.2,0-0.5-0.2-0.5C170.9,219.6,153.3,218.5,147.5,219.6z"/>
		<path class="st0" d="M93.9,200.4c5.8-3.7,11.9-13.1,14.6-22.2c5.2-17.5,11.8-26.5,20.2-27.5c16.6-2,31.1,9.5,47.8,6.6
			c21-3.5,32-14.6,36.6-20.9c24.3-32.5-8-66.6-15.4-72.3c-0.6-0.5-1.2,0.6-0.6,1.3c0.6,0.8,1.1,1.2,1.4,1.6
			c42.1,52.2-3.6,73.5-40,70.6c-13.9-1.1-25.6-13.1-40.8-7.6c-12.5,4.6-19.5,25.4-22.8,35.4c-5.3,15.9-9.1,27.4-21.2,24.8
			c-0.2,0-7.4-1.4-14.8-9.1c-0.5-0.5-1.3,0.4-0.4,1.7c2.8,4.4,6.4,12.1,18.9,18.9C82.9,205,89.2,203.5,93.9,200.4z"/>
		<path class="st0" d="M146.4,183.9c8.9,0,17.1,4.3,26,4.1c8.4-0.2,15-1.8,24.8-5.9c1.6-0.6,3.1-1.4,4.6-2.3
			c27.1-16.1,30.5-39,29-55.5c-0.2-1.7-1.5-0.7-1.8,2.4c-0.9,7.4-5.1,25.7-24.8,37.5c-10.7,6.5-23.4,7-28.7,7.2
			c-10.3,0.4-19.9-3.8-30-4.8c-24.2-2.2-30.2,19-32.8,28.1c-3.3,11.6-7.8,15.4-10.9,16.6c-2.6,1-9,0.9-16.5-1.1
			c-0.6-0.2-0.9,0.7,0.4,1.6c6.8,5.2,15.7,7.6,22.2,5.9C126.3,213,123.6,183.9,146.4,183.9z"/>
		<path class="st0" d="M165.6,91.4c22.2-9.2,0.7-36.3-12.1-45.6c-1.2-0.9-3-2.5-5.2-2.7c-1.1-0.1,0.6,1.8,1.4,2.7
			c17.9,21.1,12.7,36.5-0.6,30.8c-6.3-2.7-10.1-7.4-14.8-13.7c-9.3-12.5-24.7-23.2-21.1-12.7C129.7,98.5,158,94.6,165.6,91.4z"/>
		<path class="st0" d="M62.2,137c3.3,2.6,11.3-15.6,10.6-21.3c-0.4-3.6-3.5-8.6-5.6-11.2c-0.9-1.1-2.1-2.4-3.3,0
			c-2.2,4.4-4.2,15.9-4.5,18.5C58.4,133.7,62.2,137,62.2,137z"/>
	</g>
</g>
</svg>
